<?xml version="1.0" encoding="utf-8"?>
<!-- Generator: Adobe Illustrator 23.0.3, SVG Export Plug-In . SVG Version: 6.00 Build 0)  -->
<svg version="1.1" id="Layer_1" xmlns="http://www.w3.org/2000/svg" xmlns:xlink="http://www.w3.org/1999/xlink" x="0px" y="0px"
	 viewBox="0 0 16 16" style="enable-background:new 0 0 16 16;" xml:space="preserve">
<style type="text/css">
	.st0{fill:#231F20;}
</style>
<g>
	<path class="st0" d="M12.54,5.2c0.88,0.47,1.53,1.15,1.53,2.95c0,2.23-2.02,5.74-7.51,5.74C3.48,13.89,1,12.04,1,9.66
		c0-1.57,0.92-2.14,1.87-2.72c-0.61-0.49-1.19-1.06-1.19-2.3c0-1.12,1.19-2.5,2.75-2.5c1.76,0,2.88,0.86,3.22,2.2l-0.4,0.23
		C6.65,3.59,6.11,3.12,5.12,3.12c-1.21,0-2.05,0.9-2.05,2.14c0,0.72,0.04,1.1,0.32,1.37c0.5-0.18,1.06-0.27,1.57-0.27
		c0.74,0,1.17,0.34,1.17,0.79c0,0.38-0.25,0.72-0.81,0.72c-0.83,0-1.31-0.31-1.87-0.65c-0.22,0.09-1.17,0.4-1.17,1.55
		c0,1.84,2.12,3.65,5.83,3.65c3.35,0,5.2-2.2,5.2-4.37c0-2.14-1.31-2.93-2.68-2.93c-1.03,0-2.09,0.59-2.09,1.64
		c0,0.43,0.07,0.67,0.22,0.9c0.22-0.52,0.45-0.88,1.01-0.88c0.63,0,0.86,0.52,0.86,0.85c0,0.52-0.2,1.01-1.1,1.01
		c-1.06,0-1.58-0.77-1.58-2.09c0-1.94,1.87-2.47,3.15-2.47c0.47,0,1.55,0.09,1.96,0.09c1.01,0,1.66-0.79,1.66-1.41
		c0-0.41-0.09-0.56-0.27-0.65c-0.11,0.29-0.34,0.72-0.77,0.72c-0.58,0-0.79-0.38-0.79-0.81c0-0.5,0.31-1.03,1.08-1.03
		c1.06,0,1.3,1.31,1.3,1.89C15.26,4.33,14.23,5.2,12.54,5.2z"/>
</g>
</svg>
